<?xml version="1.0" encoding="UTF-8"?>
<svg width="1200pt" height="1200pt" version="1.1" viewBox="0 0 1200 1200" xmlns="http://www.w3.org/2000/svg">
 <path d="m455.91 508.37c17.219-19.895-53.688-207.17-2.5195-225.98 37.117-13.547 34.609 54.348 37.117 74.148 3.6484 40.754 12.324 90.133 25.906 127.18 12.324-59.281 11.113-119.8 13.586-180.27 1.1992-18.562 6.1562-60.504 30.852-58.078 58.043 3.7422-8.6406 198.82 29.652 223.51 25.906-29.652 33.348-106.2 43.223-144.48 3.7188-16.043 8.7461-66.781 44.438-45.684 27.203 16.094 4.9336 117.34-3.6719 149.41-8.6875 33.348-8.6875 56.773-18.574 95.09-2.3984 25.945-7.3438 54.348 9.8867 74.102 30.898 0 101.95-87.719 136.52-60.574 23.461 17.305 11.797 39.551-4.2852 50.039-118.6 76.621-100.13 171.67-156.95 182.76 0 97.355-5.8906 101.03 3.9258 197.91-61.715 10.246-126.29 7.7148-185.38 3.793v-0.046875c4.043-51.07 2.3984-12.18 6.168-68.844 2.832-44.027 3.6602-83.387 4.9453-126.61l-1.2852-4.9336c-36.996-9.9258-48.086-74.688-60.48-117.91-13.559-46.98 2.4727-88.945-14.844-134.61-10.992-34.598-57.742-120.54-28.344-145.7 17.352-14.855 27.133-2.5078 40.715 29.578 11.137 26.148 16.73 102.49 49.391 106.2z"/>
</svg>
