<?xml version="1.0" encoding="UTF-8"?>
<svg width="1200pt" height="1200pt" version="1.1" viewBox="0 0 1200 1200" xmlns="http://www.w3.org/2000/svg">
 <g>
  <path d="m688.97 377.26c62.375-40.559 87.312 14.305 95.977 61.715l0.14453 0.16797c4.4883 23.785 8.1484 52.586 10.5 85.512-20.316 72.395-38.953 112.49-72.383 150.93-18.793 21.805-36.781 42.602-51.406 68.051-36.602 65.051-26.293 94.5-25.117 145.19l-218.14 4.0312c1.0078-2.6758 2.0039-4.7891 3-7.1289 6.3477-14.688 12.816-29.988 0-47.258-20.473-28.969-30.938-86.363-16.297-140.94 11.82-50.578 67.668-84.805 112.97-89.496 139.97-14.484 176.69-132.96 176.69-141.74 0.98047-0.52344-17.426-79.043-15.938-89.023z"/>
  <path d="m707.68 449c-14.496 8.8086-52.211 18.023-57.863 18.707-6.9727 1.1523-21.637-5.4961-31.789-15.961-2.6289-5.3281-5.3164-10.98-7.6445-16.477-0.99609-2.3398-1.9688-4.6797-2.8203-6.9961 3.3242-13.477 16.453-24.613 39.277-32.93 7.7891-3.0117 56.125-27.395 63.949-29.543 0.99609 3.4961-3.6133 80.031-3.1094 83.199z"/>
  <path d="m652.33 484.2c8.1602-1.0078 17.797-4.6797 29.125-10.836 2.3047 16.152 1.1523 24.805-15.156 33.938-5.9883 1.9922-9.4805 1.332-11.977 0.17969-6.9961-3.1562-12-11.977-16.309-18.793-0.83984-1.6562-1.6562-3-2.4844-4.332-0.51562-0.99609-1.1875-1.9688-1.8711-2.9883 5.1836 1.9922 10.332 3.168 14.809 3.168 1.5352-0.023437 3.0117-0.20312 3.8633-0.33594z"/>
  <path d="m607.29 501.79c3.7305 19.465 4.6445 29.113-14.734 39.07-7.2734 2.2695-11.016 1.3789-13.98 0.16797-7.6094-3.4336-13.414-12.012-18.266-18.742-0.92578-1.5703-2.0508-3.0977-3-4.2852-6.6953-10.309-16.586-25.812-24.949-42.168-10.824-20.473-19.766-42.145-19.969-56.258-0.16797-10.691 11.004-27.887 27.781-35.449 8.9531-3.9492 17.52-4.3086 26.258-0.50391 18.84 9.8047 27.793 33.551 32.438 57.289 2.7969 14.102 4.2852 28.367 5.2305 39.742 0.38281 3.7695 0.75781 7.3789 1.3086 10.824 0.58594 3.6289 1.1133 7.0586 1.8828 10.312z"/>
  <path d="m472.23 561.53c-1.1172-1.4023-1.8711-2.9297-2.7852-4.2852-6.4453-9.3242-14.93-23.062-22.859-38.051-5.6875-10.668-11.027-21.684-15.133-32.172-4.043-10.668-6.6133-20.449-6.6133-28.055-0.35938-10.668 10.871-27.863 27.301-35.426 9-3.9609 17.305-4.3203 25.969-0.71875 20.113 10.703 28.945 37.008 33 62.293 2.5781 12.383 3.5039 24.949 4.6094 34.906 0.19141 3.6602 0.75781 7.4141 0.91016 10.691 0.55078 3.793 1.3086 7.2227 1.8594 10.512 3.8633 19.246 4.8125 29.258-14.578 39.047-6.8164 2.4258-10.883 1.3789-13.633 0-7.5469-3.2617-13.461-11.867-18.047-18.742z"/>
  <path d="m399.41 608.07c-4.8359-6.5156-11.375-15.863-17.484-26.352-12.348-20.219-24.434-44.375-25.141-59.988-0.9375-9.9375 7.9062-27.254 21.781-36.406 7.4883-4.9688 14.734-6.1211 22.176-3.8398 19.559 8.1719 27.973 36.371 32.676 61.727 1.668 8.7109 2.9414 17.148 3.7422 24.312 0.51562 3.3945 0.89844 6.6484 1.4297 9.8867 0.52734 3.2383 1.4141 6.4336 2.2578 9.4805 3.8164 17.363 5.1836 26.629-10.969 38.316-5.6641 2.9766-9.3125 2.5547-11.797 1.7031-6.5742-2.0742-12-9.5273-16.246-15.301-1.0078-1.3906-1.8125-2.625-2.4258-3.5391z"/>
 </g>
</svg>
