<?xml version="1.0" encoding="UTF-8"?>
<svg width="1200pt" height="1200pt" version="1.1" viewBox="0 0 1200 1200" xmlns="http://www.w3.org/2000/svg">
 <g>
  <path d="m766.21 239.28c30.793 28.5-21.562 133.36-62.004 236.47-20.941-5.0391-41.293-10.824-71.195-13.68l0.23828-0.80469c5.0273-15.48 8.6758-35.82 16.199-56.125 68.617-185.52 103.73-177.91 116.76-165.86z"/>
  <path d="m671.48 610.69c0-27.695-34.176-38.293-72.84-47.953-28.066-7.0664-59.879-15.012-66.277-29.316-2.1602-4.9688-1.2344-11.051 2.8906-18.672 0.9375-1.6211 2.0156-3.2539 3.2656-4.5977 10.512-11.41 34.766-16.789 69.996-15.539 5.2305 0.23828 10.598 0.52734 15.949 0.99609 33 2.6641 65.27 9.5742 86.426 14.953 13.379 3.2539 25.906 6.8281 37.332 10.57 27.289 14.699 54.312 15.254 48.973 111.39-1.8008 33.527-39.707 98.062-67.859 136.63-31.43 43.02-54.793 88.078-54.469 132.82-61.223 4.2617-158.65 7.5859-237.6-3.1445-38.723-23.484 69.996-150.31 142.49-204.68 86.961-65.227 91.727-83.457 91.727-83.457z"/>
  <path d="m682.86 906.72-2.7227 2.7148-0.14453-2.5703z"/>
  <path d="m599.75 460.13c-32.125-0.50391-55.754 4.5703-70.703 14.82-3.707-15.48-23.617-112.44-26.207-132.93-8.6055-68.328 7.7891-111.91 36.215-104.48 24.949 15.996 45.48 97.43 60.695 222.59z"/>
  <path d="m504.8 680.18c-1.1172-1.3906-1.8711-2.9297-2.7852-4.2852-6.4453-9.3359-14.93-23.062-22.859-38.051-5.6875-10.68-11.027-21.707-15.133-32.195-4.043-10.668-6.6133-20.449-6.6133-28.031-0.35937-10.656 10.871-27.875 27.301-35.41 9-3.9961 17.305-4.332 25.969-0.73047 20.113 10.691 28.945 36.996 33 62.305 2.5781 12.348 3.5039 24.926 4.6094 34.906 0.19141 3.6367 0.75781 7.3789 0.91016 10.656 0.55078 3.8281 1.3086 7.2227 1.8594 10.535 3.8633 19.246 4.8125 29.258-14.578 39.035-6.8164 2.4102-10.883 1.3906-13.633 0-7.5469-3.2656-13.465-11.848-18.047-18.734z"/>
  <path d="m431.98 726.73c-4.8359-6.5391-11.375-15.875-17.484-26.363-12.348-20.219-24.434-44.375-25.141-59.965-0.9375-9.9375 7.9062-27.266 21.781-36.445 7.4883-4.9688 14.734-6.1211 22.176-3.8164 19.559 8.1602 27.973 36.348 32.676 61.715 1.668 8.7109 2.9414 17.16 3.7422 24.324 0.51563 3.3945 0.89844 6.6367 1.4297 9.8984 0.52734 3.2266 1.4141 6.4062 2.2578 9.4688 3.8164 17.363 5.1836 26.629-10.969 38.305-5.6641 2.9766-9.3125 2.543-11.797 1.7031-6.5742-2.0898-12-9.5156-16.246-15.289-1.0117-1.4102-1.8125-2.6445-2.4258-3.5352z"/>
 </g>
</svg>
